<?xml version="1.0" encoding="UTF-8" standalone="no"?>
<!-- Created with Inkscape (http://www.inkscape.org/) -->

<svg
   xmlns:dc="http://purl.org/dc/elements/1.1/"
   xmlns:cc="http://creativecommons.org/ns#"
   xmlns:rdf="http://www.w3.org/1999/02/22-rdf-syntax-ns#"
   xmlns:svg="http://www.w3.org/2000/svg"
   xmlns="http://www.w3.org/2000/svg"
   xmlns:sodipodi="http://sodipodi.sourceforge.net/DTD/sodipodi-0.dtd"
   xmlns:inkscape="http://www.inkscape.org/namespaces/inkscape"
   id="svg3355"
   version="1.1"
   inkscape:version="0.91 r13725"
   xml:space="preserve"
   width="244.01706mm"
   height="60.285667mm"
   viewBox="0 0 864.62738 213.61063"
   sodipodi:docname="avtomagazin.svg"><metadata
     id="metadata3361"><rdf:RDF><cc:Work
         rdf:about=""><dc:format>image/svg+xml</dc:format><dc:type
           rdf:resource="http://purl.org/dc/dcmitype/StillImage" /><dc:title></dc:title></cc:Work></rdf:RDF></metadata><defs
     id="defs3359" /><sodipodi:namedview
     pagecolor="#ffffff"
     bordercolor="#666666"
     borderopacity="1"
     objecttolerance="10"
     gridtolerance="10"
     guidetolerance="10"
     inkscape:pageopacity="0"
     inkscape:pageshadow="2"
     inkscape:window-width="1680"
     inkscape:window-height="993"
     id="namedview3357"
     showgrid="false"
     inkscape:zoom="1.6255319"
     inkscape:cx="336.2487"
     inkscape:cy="106.23436"
     inkscape:window-x="1680"
     inkscape:window-y="0"
     inkscape:window-maximized="1"
     inkscape:current-layer="g3365"
     fit-margin-top="1.2"
     fit-margin-left="0"
     fit-margin-right="0"
     fit-margin-bottom="0"
     units="mm" /><g
     id="g3363"
     inkscape:groupmode="layer"
     inkscape:label="ink_ext_XXXXXX"
     transform="matrix(1.25,0,0,-1.25,-37.475125,244.25125)"><g
       id="g3365"
       transform="scale(0.1,0.1)"><path
         d="m 0.382813,2180.3 7515.847187,0 0,-2171.07344 -7515.847187,0 0,2171.07344"
         style="fill:#ed1c24;fill-opacity:0;fill-rule:evenodd;stroke:none"
         id="path3367"
         inkscape:connector-curvature="0" /><path
         d="m 715.902,1509.78 c 22.801,32.78 68.399,47.03 153.899,47.03 98.324,0 169.579,-27.08 169.579,-64.13 0,-25.64 -17.11,-29.92 -151.056,-34.2 -202.351,-5.69 -360.523,-27.07 -461.699,-65.54 -82.648,-31.36 -126.824,-89.78 -126.824,-171 0,-155.33 149.625,-246.768 404.699,-246.768 145.352,0 237.973,23.039 346.28,82.888 l 7.12,-64.126 342,0 c -24.22,39.906 -29.92,71.256 -29.92,158.176 l 0,277.87 c 0,89.78 -7.13,131.1 -31.36,171 -57,96.9 -208.05,138.23 -493.042,138.23 -141.078,0 -250.801,-15.67 -324.902,-47.03 -95.477,-39.89 -138.227,-91.2 -162.449,-196.64 l 357.675,14.24 z m 326.328,-209.47 c 0,-91.2 -51.304,-118.27 -222.304,-118.27 -88.348,0 -131.102,19.94 -131.102,59.84 0,29.93 24.227,52.73 66.973,58.43 25.656,2.85 45.605,4.27 106.879,5.7 136.804,4.28 136.804,4.28 179.554,11.4 l 0,-17.1 z m 689.69,-306.376 363.37,0 329.18,713.926 -342,0 -161.02,-389.02 -162.45,389.02 -362.19,0 335.11,-713.926 z m 827.92,521.546 0,-265.04 c 0,-129.68 1.43,-131.11 11.41,-161.03 25.64,-71.25 84.07,-95.476 233.69,-95.476 l 193.8,0 0,183.826 -21.37,0 c -78.37,0 -91.2,9.98 -91.2,75.53 l 0,262.19 114,0 0,192.38 -114,0 0,236.55 -326.33,0 0,-236.55 -115.42,0 0,-192.38 115.42,0 z m 1068.75,223.73 c -133.95,0 -256.5,-19.95 -350.55,-55.57 -131.1,-51.31 -206.62,-171.01 -206.62,-324.91 0,-168.14 71.25,-285 206.62,-339.14 94.05,-35.867 216.6,-55.82 351.98,-55.82 131.1,0 255.07,19.953 347.69,55.82 133.95,52.72 206.63,169.57 206.63,332.02 0,161.02 -74.1,279.3 -206.63,332.03 -94.04,35.62 -215.17,55.57 -349.12,55.57 z m 0,-206.62 c 114,0 192.38,-72.68 192.38,-180.98 0,-106.88 -78.38,-180.98 -192.38,-180.98 -116.85,0 -193.8,72.68 -193.8,183.83 0,105.45 79.8,178.13 193.8,178.13"
         style="fill:#ffffff;fill-opacity:1;fill-rule:nonzero;stroke:none"
         id="path3369"
         inkscape:connector-curvature="0" /><path
         d="m 1947.36,396.57 223.52,0 0,205.946 c 0,41.964 5.85,71.25 19.52,91.746 18.55,30.254 58.56,47.824 104.44,47.824 47.82,0 81,-16.594 94.67,-47.824 8.78,-20.496 11.71,-45.875 11.71,-109.317 l 0,-188.375 223.51,0 0,204.969 c 0,97.602 39.05,140.547 124.93,140.547 51.74,0 83.95,-19.52 97.61,-57.586 6.83,-20.496 9.76,-50.754 9.76,-100.531 l 0,-187.399 223.51,0 0,261.578 c 0,172.758 -66.37,240.102 -236.2,240.102 -105.41,0 -174.71,-20.492 -246.93,-74.18 -46.86,52.707 -103.46,74.18 -203.02,74.18 -96.63,0 -166.9,-22.445 -232.3,-74.18 l 0,61.493 -214.73,0 0,-488.993 z m 1478.51,353.325 c 15.62,22.449 46.85,32.21 105.41,32.21 67.35,0 116.15,-18.546 116.15,-43.925 0,-17.567 -11.72,-20.492 -103.46,-23.426 -138.6,-3.902 -246.94,-18.539 -316.24,-44.895 -56.6,-21.472 -86.87,-61.488 -86.87,-117.125 0,-106.386 102.49,-169.015 277.2,-169.015 99.56,0 162.99,15.781 237.18,56.769 l 4.88,-43.918 234.24,0 c -16.59,27.328 -20.49,48.801 -20.49,108.344 l 0,190.324 c 0,61.489 -4.88,89.793 -21.47,117.121 -39.04,66.371 -142.5,94.676 -337.72,94.676 -96.62,0 -171.77,-10.738 -222.53,-32.211 -65.39,-27.328 -94.67,-62.465 -111.27,-134.691 l 244.99,9.762 z m 223.51,-143.477 c 0,-62.469 -35.14,-81.012 -152.26,-81.012 -60.51,0 -89.8,13.664 -89.8,40.992 0,20.5 16.6,36.118 45.88,40.02 17.57,1.953 31.23,2.926 73.2,3.902 93.7,2.93 93.7,2.93 122.98,7.813 l 0,-11.715 z m 1024.65,279.145 -223.52,0 0,-52.704 c -48.8,45.871 -112.24,65.391 -210.82,65.391 -189.35,0 -303.55,-89.797 -303.55,-238.152 0,-65.395 25.38,-124.93 66.38,-156.164 54.66,-40.02 150.31,-64.418 258.64,-64.418 83.95,0 139.57,13.664 189.35,46.851 -3.9,-42.945 -10.73,-63.445 -26.35,-80.035 -21.47,-23.594 -61.49,-35.301 -117.12,-35.301 -46.85,0 -66.37,6.828 -85.89,32.371 l -265.48,0 c 21.47,-112.406 117.12,-158.277 330.87,-158.277 174.71,0 292.81,28.301 341.61,80.031 34.17,38.067 45.88,82.149 45.88,170.969 l 0,389.438 z m -354.3,-145.43 c 79.06,0 130.78,-34.16 130.78,-85.891 0,-52.703 -52.7,-87.844 -131.76,-87.844 -82.96,0 -133.71,33.188 -133.71,87.844 0,52.707 51.72,85.891 134.69,85.891 z m 699.63,9.762 c 15.61,22.449 46.84,32.21 105.41,32.21 67.34,0 116.14,-18.546 116.14,-43.925 0,-17.567 -11.71,-20.492 -103.45,-23.426 -138.6,-3.902 -246.94,-18.539 -316.24,-44.895 -56.61,-21.472 -86.87,-61.488 -86.87,-117.125 0,-106.386 102.49,-169.015 277.2,-169.015 99.55,0 162.99,15.781 237.17,56.769 l 4.89,-43.918 234.24,0 c -16.59,27.328 -20.49,48.801 -20.49,108.344 l 0,190.324 c 0,61.489 -4.88,89.793 -21.48,117.121 -39.04,66.371 -142.5,94.676 -337.71,94.676 -96.62,0 -171.78,-10.738 -222.53,-32.211 -65.4,-27.328 -94.68,-62.465 -111.27,-134.691 l 244.99,9.762 z m 223.51,-143.477 c 0,-62.469 -35.14,-81.012 -152.26,-81.012 -60.52,0 -89.8,13.664 -89.8,40.992 0,20.5 16.59,36.118 45.88,40.02 17.56,1.953 31.22,2.926 73.2,3.902 93.7,2.93 93.7,2.93 122.98,7.813 l 0,-11.715 z m 274.07,-209.848 644.19,0 0,149.332 -308.43,0 315.26,217.657 0,122.004 -622.71,0 0,-149.336 260.6,0 -288.91,-215.7 0,-123.957 z m 711.34,0 223.52,0 0,488.993 -223.52,0 0,-488.993 z m 0,534.868 223.52,0 0,116.152 -223.52,0 0,-116.152 z m 306.29,-534.868 223.52,0 0,202.035 c 0,39.043 4.87,67.348 15.61,86.872 19.52,36.113 59.54,56.609 113.22,56.609 43.92,0 76.13,-13.664 89.79,-37.09 11.72,-21.473 16.59,-49.777 16.59,-106.391 l 0,-202.035 223.52,0 0,243.035 c 0,89.793 -1.96,114.192 -13.67,145.426 -28.3,77.102 -97.6,113.219 -219.6,113.219 -90.78,0 -148.36,-15.617 -225.46,-59.535 l 0,46.848 -223.52,0 0,-488.993"
         style="fill:#ffffff;fill-opacity:1;fill-rule:nonzero;stroke:none"
         id="path3371"
         inkscape:connector-curvature="0" /></g></g></svg>