<?xml version="1.0" encoding="UTF-8" standalone="no"?>
<!-- Created with Inkscape (http://www.inkscape.org/) -->

<svg
   xmlns:dc="http://purl.org/dc/elements/1.1/"
   xmlns:cc="http://creativecommons.org/ns#"
   xmlns:rdf="http://www.w3.org/1999/02/22-rdf-syntax-ns#"
   xmlns:svg="http://www.w3.org/2000/svg"
   xmlns="http://www.w3.org/2000/svg"
   xmlns:sodipodi="http://sodipodi.sourceforge.net/DTD/sodipodi-0.dtd"
   xmlns:inkscape="http://www.inkscape.org/namespaces/inkscape"
   id="svg3355"
   version="1.1"
   inkscape:version="0.91 r13725"
   xml:space="preserve"
   width="161.10492mm"
   height="35mm"
   viewBox="0 0 570.84421 124.01575"
   sodipodi:docname="avto.svg"><metadata
     id="metadata3361"><rdf:RDF><cc:Work
         rdf:about=""><dc:format>image/svg+xml</dc:format><dc:type
           rdf:resource="http://purl.org/dc/dcmitype/StillImage" /><dc:title></dc:title></cc:Work></rdf:RDF></metadata><defs
     id="defs3359" /><sodipodi:namedview
     pagecolor="#ffffff"
     bordercolor="#666666"
     borderopacity="1"
     objecttolerance="10"
     gridtolerance="10"
     guidetolerance="10"
     inkscape:pageopacity="0"
     inkscape:pageshadow="2"
     inkscape:window-width="1680"
     inkscape:window-height="993"
     id="namedview3357"
     showgrid="true"
     inkscape:zoom="2"
     inkscape:cx="242.78367"
     inkscape:cy="-16.710006"
     inkscape:window-x="1680"
     inkscape:window-y="0"
     inkscape:window-maximized="1"
     inkscape:current-layer="g3363"
     fit-margin-top="0"
     fit-margin-left="2.7755576e-17"
     fit-margin-right="0"
     fit-margin-bottom="0"
     units="mm"
     borderlayer="true"
     showborder="true"><inkscape:grid
       type="xygrid"
       id="grid4146"
       originx="-6.0000145"
       originy="-6.9246569e-06" /></sodipodi:namedview><g
     id="g3363"
     inkscape:groupmode="layer"
     inkscape:label="ink_ext_XXXXXX"
     transform="matrix(1.25,0,0,-1.25,-43.475139,244.487)"><g
       id="g3365"
       transform="matrix(0.10117127,0,0,0.10117127,4.4488514,-1.1288375)"><path
         d="m 715.902,1509.78 c 22.801,32.78 68.399,47.03 153.899,47.03 98.324,0 169.579,-27.08 169.579,-64.13 0,-25.64 -17.11,-29.92 -151.056,-34.2 -202.351,-5.69 -360.523,-27.07 -461.699,-65.54 -82.648,-31.36 -126.824,-89.78 -126.824,-171 0,-155.33 149.625,-246.768 404.699,-246.768 145.352,0 237.973,23.039 346.28,82.888 l 7.12,-64.126 342,0 c -24.22,39.906 -29.92,71.256 -29.92,158.176 l 0,277.87 c 0,89.78 -7.13,131.1 -31.36,171 -57,96.9 -208.05,138.23 -493.042,138.23 -141.078,0 -250.801,-15.67 -324.902,-47.03 -95.477,-39.89 -138.227,-91.2 -162.449,-196.64 l 357.675,14.24 z m 326.328,-209.47 c 0,-91.2 -51.304,-118.27 -222.304,-118.27 -88.348,0 -131.102,19.94 -131.102,59.84 0,29.93 24.227,52.73 66.973,58.43 25.656,2.85 45.605,4.27 106.879,5.7 136.804,4.28 136.804,4.28 179.554,11.4 l 0,-17.1 z m 689.69,-306.376 363.37,0 329.18,713.926 -342,0 -161.02,-389.02 -162.45,389.02 -362.19,0 335.11,-713.926 z m 827.92,521.546 0,-265.04 c 0,-129.68 1.43,-131.11 11.41,-161.03 25.64,-71.25 84.07,-95.476 233.69,-95.476 l 193.8,0 0,183.826 -21.37,0 c -78.37,0 -91.2,9.98 -91.2,75.53 l 0,262.19 114,0 0,192.38 -114,0 0,236.55 -326.33,0 0,-236.55 -115.42,0 0,-192.38 115.42,0 z m 1068.75,223.73 c -133.95,0 -256.5,-19.95 -350.55,-55.57 -131.1,-51.31 -206.62,-171.01 -206.62,-324.91 0,-168.14 71.25,-285 206.62,-339.14 94.05,-35.867 216.6,-55.82 351.98,-55.82 131.1,0 255.07,19.953 347.69,55.82 133.95,52.72 206.63,169.57 206.63,332.02 0,161.02 -74.1,279.3 -206.63,332.03 -94.04,35.62 -215.17,55.57 -349.12,55.57 z m 0,-206.62 c 114,0 192.38,-72.68 192.38,-180.98 0,-106.88 -78.38,-180.98 -192.38,-180.98 -116.85,0 -193.8,72.68 -193.8,183.83 0,105.45 79.8,178.13 193.8,178.13"
         style="fill:#ffffff;fill-opacity:1;fill-rule:nonzero;stroke:none"
         id="path3369"
         inkscape:connector-curvature="0" /><path
         inkscape:connector-curvature="0"
         id="path4185"
         style="fill:#fffffe;fill-opacity:1;fill-rule:nonzero;stroke:none"
         d="m 715.902,1509.78 c 22.801,32.78 68.399,47.03 153.899,47.03 98.324,0 169.579,-27.08 169.579,-64.13 0,-25.64 -17.11,-29.92 -151.056,-34.2 -202.351,-5.69 -360.523,-27.07 -461.699,-65.54 -82.648,-31.36 -126.824,-89.78 -126.824,-171 0,-155.33 149.625,-246.768 404.699,-246.768 145.352,0 237.973,23.039 346.28,82.888 l 7.12,-64.126 342,0 c -24.22,39.906 -29.92,71.256 -29.92,158.176 l 0,277.87 c 0,89.78 -7.13,131.1 -31.36,171 -57,96.9 -208.05,138.23 -493.042,138.23 -141.078,0 -250.801,-15.67 -324.902,-47.03 -95.477,-39.89 -138.227,-91.2 -162.449,-196.64 l 357.675,14.24 z m 326.328,-209.47 c 0,-91.2 -51.304,-118.27 -222.304,-118.27 -88.348,0 -131.102,19.94 -131.102,59.84 0,29.93 24.227,52.73 66.973,58.43 25.656,2.85 45.605,4.27 106.879,5.7 136.804,4.28 136.804,4.28 179.554,11.4 l 0,-17.1 z m 689.69,-306.376 363.37,0 329.18,713.926 -342,0 -161.02,-389.02 -162.45,389.02 -362.19,0 335.11,-713.926 z m 827.92,521.546 0,-265.04 c 0,-129.68 1.43,-131.11 11.41,-161.03 25.64,-71.25 84.07,-95.476 233.69,-95.476 l 193.8,0 0,183.826 -21.37,0 c -78.37,0 -91.2,9.98 -91.2,75.53 l 0,262.19 114,0 0,192.38 -114,0 0,236.55 -326.33,0 0,-236.55 -115.42,0 0,-192.38 115.42,0 z m 1068.75,223.73 c -133.95,0 -256.5,-19.95 -350.55,-55.57 -131.1,-51.31 -206.62,-171.01 -206.62,-324.91 0,-168.14 71.25,-285 206.62,-339.14 94.05,-35.867 216.6,-55.82 351.98,-55.82 131.1,0 255.07,19.953 347.69,55.82 133.95,52.72 206.63,169.57 206.63,332.02 0,161.02 -74.1,279.3 -206.63,332.03 -94.04,35.62 -215.17,55.57 -349.12,55.57 z m 0,-206.62 c 114,0 192.38,-72.68 192.38,-180.98 0,-106.88 -78.38,-180.98 -192.38,-180.98 -116.85,0 -193.8,72.68 -193.8,183.83 0,105.45 79.8,178.13 193.8,178.13" /></g></g></svg>