<?xml version="1.0" encoding="UTF-8" standalone="no"?>
<!-- Generator: Adobe Illustrator 19.0.0, SVG Export Plug-In . SVG Version: 6.00 Build 0)  -->

<svg
   xmlns:dc="http://purl.org/dc/elements/1.1/"
   xmlns:cc="http://creativecommons.org/ns#"
   xmlns:rdf="http://www.w3.org/1999/02/22-rdf-syntax-ns#"
   xmlns:svg="http://www.w3.org/2000/svg"
   xmlns="http://www.w3.org/2000/svg"
   xmlns:sodipodi="http://sodipodi.sourceforge.net/DTD/sodipodi-0.dtd"
   xmlns:inkscape="http://www.inkscape.org/namespaces/inkscape"
   version="1.1"
   id="svg3373"
   sodipodi:docname="moto.svg"
   inkscape:version="0.91 r13725"
   x="0px"
   y="0px"
   viewBox="0 290.5 570.84419 124.01574"
   xml:space="preserve"
   width="161.10492mm"
   height="35mm"><metadata
     id="metadata12"><rdf:RDF><cc:Work
         rdf:about=""><dc:format>image/svg+xml</dc:format><dc:type
           rdf:resource="http://purl.org/dc/dcmitype/StillImage" /><dc:title></dc:title></cc:Work></rdf:RDF></metadata><defs
     id="defs10" /><style
     type="text/css"
     id="style3">
	.st0{fill:#FFFFFF;}
</style><sodipodi:namedview
     bordercolor="#666666"
     id="namedview3375"
     pagecolor="#ffffff"
     objecttolerance="10"
     borderopacity="1"
     inkscape:zoom="2"
     inkscape:cx="262.975"
     gridtolerance="10"
     guidetolerance="10"
     showgrid="true"
     inkscape:cy="57.131247"
     fit-margin-top="0"
     fit-margin-left="0"
     inkscape:current-layer="g3381"
     inkscape:window-maximized="1"
     inkscape:window-y="0"
     inkscape:window-x="0"
     fit-margin-bottom="0"
     fit-margin-right="0"
     inkscape:window-height="1025"
     inkscape:pageshadow="2"
     inkscape:pageopacity="0"
     inkscape:window-width="1680"
     units="mm"
     borderlayer="true"><inkscape:grid
       type="xygrid"
       id="grid4140"
       originx="-5.9499997e-07"
       originy="4.4025595e-08" /></sodipodi:namedview><g
     id="g3381"
     transform="matrix(1.25,0,0,-1.25,-37.150001,280.10323)"
     inkscape:label="ink_ext_XXXXXX"
     inkscape:groupmode="layer"><g
       id="g3383"
       transform="matrix(0.10853583,0,0,0.10853583,-2.5368482,9.1785602)"><path
         id="path3389"
         inkscape:connector-curvature="0"
         class="st0"
         d="m 297.2,-1047.2 304.2,0 0,280.3 c 0,57.1 8,97 26.6,124.9 25.2,41.2 79.7,65.1 142.1,65.1 65.1,0 110.3,-22.6 128.9,-65.1 12,-27.9 15.9,-62.4 15.9,-148.8 l 0,-256.4 304.2,0 0,279 c 0,132.8 53.1,191.3 170,191.3 70.4,0 114.3,-26.6 132.8,-78.4 9.3,-27.9 13.3,-69.1 13.3,-136.8 l 0,-255.1 304.2,0 0,356 c 0,235.1 -90.3,326.8 -321.5,326.8 -143.5,0 -237.8,-27.9 -336.1,-101 -63.8,71.7 -140.8,101 -276.3,101 -131.5,0 -227.2,-30.6 -316.2,-101 l 0,83.7 -292.1,0 c 0,0 0,-665.5 0,-665.5 z m 2119.4,694.8 c -124.9,0 -239.1,-18.6 -326.8,-51.8 -122.2,-47.8 -192.6,-159.4 -192.6,-302.9 0,-156.8 66.4,-265.7 192.6,-316.2 87.7,-33.4 201.9,-52 328.1,-52 122.2,0 237.8,18.6 324.1,52 124.9,49.2 192.6,158.1 192.6,309.5 0,150.1 -69.1,260.4 -192.6,309.5 -87.6,33.3 -200.5,51.9 -325.4,51.9 l 0,0 z m 0,-192.7 c 106.3,0 179.3,-67.8 179.3,-168.7 0,-99.6 -73.1,-168.7 -179.3,-168.7 -108.9,0 -180.7,67.8 -180.7,171.4 0.1,98.3 74.5,166 180.7,166 l 0,0 z m 617.1,-15.9 0,-247.1 c 0,-120.9 1.3,-122.2 10.6,-150.1 23.9,-66.4 78.4,-89 217.9,-89 l 180.7,0 0,171.4 -19.9,0 c -73.1,0 -85,9.3 -85,70.4 l 0,244.4 106.3,0 0,179.3 -106.3,0 0,220.5 -304.2,0 0,-220.5 -107.6,0 0,-179.3 107.5,0 z m 953.1,208.6 c -124.9,0 -239.1,-18.6 -326.8,-51.8 -122.2,-47.8 -192.6,-159.4 -192.6,-302.9 0,-156.8 66.4,-265.7 192.6,-316.2 87.7,-33.4 201.9,-52 328.1,-52 122.2,0 237.8,18.6 324.1,52 124.9,49.2 192.6,158.1 192.6,309.5 0,150.1 -69.1,260.4 -192.6,309.5 -87.6,33.3 -200.6,51.9 -325.4,51.9 z m 0,-192.7 c 106.3,0 179.3,-67.8 179.3,-168.7 0,-99.6 -73.1,-168.7 -179.3,-168.7 -108.9,0 -180.7,67.8 -180.7,171.4 0,98.3 74.4,166 180.7,166"
         style="fill:#ffffff" /></g></g></svg>