<svg width="550" height="118.5" version="1.1" viewBox="0 0 715 154" xmlns="http://www.w3.org/2000/svg">
 <defs>
  <clipPath id="clipPath18">
   <path d="m0 595.3h841.9v-595.3h-841.9z"/>
  </clipPath>
 </defs>
 <g transform="matrix(1.333 0 0 -1.333 -220.9 456.1)">
  <g clip-path="url(#clipPath18)">
   <g transform="translate(572.7 260.1)">
    <path d="m0 0c0-1.559 1.275-2.834 2.834-2.834h14.27c1.558 0 2.834 1.275 2.834 2.834v63.71c0 1.559-1.276 2.835-2.834 2.835h-14.27c-1.559 0-2.834-1.276-2.834-2.835z" fill="#fff"/>
   </g>
   <g transform="translate(572.7 241)">
    <path d="m0 0c0-1.559 1.275-2.834 2.834-2.834h14.27c1.558 0 2.834 1.275 2.834 2.834v4.289c0 1.559-1.276 2.834-2.834 2.834h-14.27c-1.559 0-2.834-1.275-2.834-2.834z" fill="#fff"/>
   </g>
   <g transform="translate(611.8 246)">
    <path d="m0 0h2.195v-1.199h.024c.121.875.912 1.295 2.039 1.295h.876c1.091 0 1.835-.469 2.266-1.428.384 1.103.875 1.428 2.184 1.428h.707c2.099 0 2.855-1.02 2.855-2.772v-3.441h-2.303v3.287c0 .84-.216 1.127-1.56 1.127-1.103 0-1.558-.24-1.558-1.043v-3.371h-2.303v3.467c0 .755-.276.947-1.668.947-.983 0-1.451-.24-1.451-1.188v-3.226h-2.303z" fill="#fff"/>
   </g>
   <g transform="translate(631 241.2)">
    <path d="m0 0c1.584 0 1.729.24 1.729.646 0 .458-.133.625-1.405.625h-1.019c-.971 0-1.175-.216-1.175-.72 0-.395.311-.551 1.212-.551zm-4.102.803c0 1.668 1.153 1.763 3.383 1.763 1.26 0 1.955-.035 2.399-.492v.541c0 .6-.18.815-1.079.815h-1.356c-.671 0-.863-.061-.888-.492h-2.23c0 1.656.815 1.931 2.758 1.931h2.676c1.582 0 2.421-.756 2.421-2.195v-4.018h-2.182v.696c-.636-.659-.876-.791-2.027-.791h-1.572c-1.402-.012-2.303.3-2.303 1.738z" fill="#fff"/>
   </g>
   <g transform="translate(641.9 242)">
    <path d="m0 0c1.141 0 1.404.299 1.404 1.223 0 .935-.263 1.248-1.404 1.248h-1.127c-1.139 0-1.403-.313-1.403-1.248 0-.924.264-1.223 1.403-1.223zm-4.761 1.727c0 1.894.972 2.398 2.806 2.398h1.344c1.164 0 1.439-.145 2.015-.936h.024v.84h2.158v-5.732c0-1.272-.407-2.52-3.297-2.52h-2.543c-1.547 0-2.423.371-2.423 1.907h2.374c0-.288.193-.467.565-.467h1.667c1.007 0 1.499.324 1.499 1.355v.408c-.455-.457-.84-.636-2.063-.636h-1.211c-2.231 0-2.915.888-2.915 2.543z" fill="#fff"/>
   </g>
   <g transform="translate(651.6 241.2)">
    <path d="m0 0c1.584 0 1.727.24 1.727.646 0 .458-.131.625-1.403.625h-1.019c-.972 0-1.176-.216-1.176-.72 0-.395.312-.551 1.212-.551zm-4.102.803c0 1.668 1.152 1.763 3.383 1.763 1.259 0 1.954-.035 2.399-.492v.541c0 .6-.18.815-1.08.815h-1.356c-.671 0-.863-.061-.887-.492h-2.23c0 1.656.814 1.931 2.758 1.931h2.675c1.583 0 2.422-.756 2.422-2.195v-4.018h-2.183v.696c-.635-.659-.875-.791-2.027-.791h-1.571c-1.403-.012-2.303.3-2.303 1.738z" fill="#fff"/>
   </g>
   <g transform="translate(657.4 241.4)">
    <path d="m0 0 3.719 2.951v.024h-3.527v1.584h6.716v-1.799l-3.513-2.711v-.024h3.681v-1.584h-7.076z" fill="#fff"/>
   </g>
   <path d="m668.9 239.9h-2.303v6.117h2.303zm0 6.885h-2.303v1.799h2.303z" fill="#fff"/>
   <g transform="translate(671.4 246)">
    <path d="m0 0h2.303v-.984h.024c.407.851 1.212 1.08 2.446 1.08 1.428 0 3.418-.061 3.418-2.7v-3.513h-2.302v3.513c0 .6-.479.901-1.487.901h-.527c-.984 0-1.572-.455-1.572-1.332v-3.082h-2.303z" fill="#fff"/>
   </g>
   <g transform="translate(687.4 243.8)">
    <path d="m0 0c0 .732-.336.863-1.679.863-1.5 0-1.679-.131-1.679-.863zm-5.661-.516c0 2.315 1.152 2.819 2.83 2.819h1.607c2.448 0 3.455-.516 3.455-2.639v-1.031h-5.589v-.371c0-.649.456-.828 1.416-.828h.707c1.248 0 1.306.336 1.306.695h2.16v-.264c0-1.535-1.367-1.871-3.035-1.871h-1.726c-1.524 0-3.131.287-3.131 2.902z" fill="#fff"/>
   </g>
   <g transform="translate(316 323.8)">
    <path d="m0 0c0 1.559-1.275 2.834-2.836 2.834h-14.41c-1.559 0-2.834-1.275-2.834-2.834v-63.71c0-1.559 1.275-2.834 2.834-2.834h60.2c1.561 0 2.836 1.275 2.836 2.834v11.22c0 1.561-1.275 2.836-2.836 2.836h-40.12c-1.559 0-2.834 1.276-2.834 2.834z" fill="#fff"/>
   </g>
   <g transform="translate(455.2 323.9)">
    <path d="m0 0c-.045 1.52-1.295 2.75-2.826 2.75h-14.41c-1.53 0-2.78-1.23-2.826-2.75h-.008v-46.91c0-1.559-1.276-2.834-2.836-2.834h-32.47c-1.559 0-2.834 1.275-2.834 2.834v46.83c0 1.559-1.275 2.834-2.836 2.834h-14.41c-1.559 0-2.834-1.275-2.834-2.834v-48.87c0-6.772 1.355-11.32 4.145-13.9 2.736-2.539 7.447-3.774 14.4-3.774h41.06c6.942 0 11.67 1.229 14.45 3.754 2.852 2.588 4.239 7.143 4.239 13.92v48.87.084z" fill="#fff"/>
   </g>
   <g transform="translate(554.6 305.7)">
    <path d="m0 0v3.987c0 6.505-1.432 10.88-4.375 13.36-2.822 2.385-7.459 3.546-14.17 3.546h-44.88c-6.844 0-11.52-1.229-14.31-3.756-2.85-2.59-4.235-7.143-4.235-13.92v-34.03c0-6.774 1.358-11.32 4.143-13.9 2.736-2.54 7.447-3.774 14.4-3.774h44.88c6.949 0 11.66 1.234 14.4 3.774 2.791 2.584 4.146 7.132 4.146 13.9l-.082.33c.051.912.082 1.807.082 2.504v15.26c0 1.558-1.275 2.834-2.836 2.834h-35.71c-1.559 0-2.834-1.276-2.834-2.834v-8.676c0-1.559 1.275-2.834 2.834-2.834h16.07c1.559 0 2.834-1.275 2.834-2.834v-1.398c0-1.559-1.275-2.834-2.834-2.834h-36.57c-1.56 0-2.836 1.275-2.836 2.834v29.79c0 1.56 1.276 2.835 2.836 2.835h36.57c1.559 0 2.834-1.275 2.834-2.835v-1.574c0-1.559 1.276-2.834 2.836-2.834h13.68c1.197.06 1.848.238 2.557 1.016.605.664.57 2.064.57 2.064" fill="#fff"/>
   </g>
   <g transform="translate(226.5 296)">
    <path d="m0 0c-1.559 0-2.834 1.275-2.834 2.836v9.013c0 1.559 1.275 2.834 2.834 2.834h30.35c2.962.002 3.339-1.736 3.339-2.773v-9.135c0-1.039-.487-2.617-3.339-2.775zm48.82 26.68c-.168.182-.341.352-.523.505-2.773 2.333-6.904 3.467-12.63 3.467h-80.43v-.019c-1.466-.103-2.64-1.322-2.64-2.815v-10.2c0-1.493 1.174-2.712 2.64-2.815v-.019h19.3c1.561 0 2.836-1.276 2.836-2.835v-9.113c0-1.561-1.275-2.836-2.836-2.836h-19.74v-.078c-1.256-.291-2.201-1.416-2.201-2.756v-10.2c0-1.34.945-2.465 2.201-2.756v-.078h19.74c1.561 0 2.836-1.276 2.836-2.834v-17.2c0-1.558 1.275-2.834 2.834-2.834h14.12c1.561 0 2.836 1.276 2.836 2.834v17.21c0 1.561 1.275 2.836 2.834 2.836h35.66c14 0 16.94 8.118 16.94 14.93v16.65c0 4.862-1.284 8.532-3.784 10.96" fill="#fff"/>
   </g>
   <g transform="translate(611.3 260)">
    <path d="m0 0c.045-1.52 1.295-2.75 2.826-2.75h14.41c1.53 0 2.78 1.23 2.826 2.75h.008v46.91c0 1.558 1.276 2.834 2.836 2.834h32.47c1.559 0 2.834-1.276 2.834-2.834v-46.83c0-1.559 1.275-2.834 2.836-2.834h14.41c1.559 0 2.834 1.275 2.834 2.834v48.87c0 6.771-1.355 11.32-4.145 13.9-2.736 2.538-7.447 3.773-14.4 3.773h-41.06c-6.942 0-11.67-1.229-14.45-3.754-2.852-2.588-4.239-7.142-4.239-13.92v-48.96z" fill="#fff"/>
   </g>
  </g>
 </g>
</svg>
